<svg width="21" height="14" viewBox="0 0 21 14" fill="#FF7622" xmlns="http://www.w3.org/2000/svg">
<path d="M0.4375 0V1.75H12.6875V5.25V7V9.625H7.63062C7.15017 9.09183 6.4618 8.75 5.6875 8.75C4.9132 8.75 4.22483 9.09183 3.74438 9.625H3.0625V8.75L4.8125 7H1.3125V11.375H3.0625C3.0625 12.8249 4.23763 14 5.6875 14C7.13737 14 8.3125 12.8249 8.3125 11.375H13.5625C13.5625 12.8249 14.7376 14 16.1875 14C17.6374 14 18.8125 12.8249 18.8125 11.375H19.6875H20.5625V7L18.1785 2.23364C18.0306 1.93702 17.7291 1.75 17.3975 1.75H14.4375V0H0.4375ZM1.3125 3.5V5.25H7.4375V3.5H1.3125ZM14.4375 3.5H16.8557L17.7307 5.25H14.4375V3.5ZM14.4375 7H18.6057L18.8125 7.41357V9.625H18.1306C17.6502 9.09183 16.9618 8.75 16.1875 8.75C15.5119 8.75 14.9027 9.0127 14.4375 9.43188V7ZM5.6875 10.2812C6.29038 10.2812 6.78125 10.7721 6.78125 11.375C6.78125 11.9779 6.29038 12.4688 5.6875 12.4688C5.08462 12.4688 4.59375 11.9779 4.59375 11.375C4.59375 10.7721 5.08462 10.2812 5.6875 10.2812ZM16.1875 10.2812C16.7904 10.2812 17.2812 10.7721 17.2812 11.375C17.2812 11.9779 16.7904 12.4688 16.1875 12.4688C15.5846 12.4688 15.0938 11.9779 15.0938 11.375C15.0938 10.7721 15.5846 10.2812 16.1875 10.2812Z" fill="black"/>
</svg>
